<?xml version="1.0" encoding="utf-8"?>
<!-- Generator: Adobe Illustrator 28.2.0, SVG Export Plug-In . SVG Version: 6.00 Build 0)  -->
<svg version="1.1" id="Capa_1" xmlns="http://www.w3.org/2000/svg" xmlns:xlink="http://www.w3.org/1999/xlink" x="0px" y="0px"
	 viewBox="104.14 170.23 633.61 254.76" xml:space="preserve">
<style type="text/css">
	.st0{fill:#C6D644;}
	.st1{fill:#1D1D1B;}
	.st2{fill:#FFFFFF;}
</style>
<g>
	<g>
		<path class="st1" d="M347.26,228.36c-20.74,0-38.76,13.15-38.76,32.97c0,13.52,10.81,21.99,23.79,26.14
			c19.12,7.4,26.51,8.3,26.51,16.05c0,4.87-5.41,8.95-10.46,8.95c-3.65,0-10.1-1.2-11.36-10.39h-29.75
			c2.71,26.32,25.6,33.15,40.75,33.15c22.17,0,40.74-12.96,40.74-34.06c0-21.63-18.03-26.67-34.98-31.37
			c-7.93-2.34-15.31-5.4-15.31-10.81c0-2.7,2.16-7.87,8.47-7.87c8.84,0,9.2,6.61,9.38,8.77h29.37
			C383.12,233.59,360.42,228.36,347.26,228.36L347.26,228.36z"/>
		<path class="st1" d="M668.38,193.95h29.01v103.7c0,9.35,7.07,12.76,14.75,12.76c2.17,0,5.5-0.22,7.62-0.71v23.97
			c-4.73,0.98-9.33,1.48-13.73,1.48c-21.29,0-37.65-11.69-37.65-36.98V193.95L668.38,193.95z"/>
		<path class="st1" d="M173.51,231.72H144.5v103.7c0,9.35-7.07,12.76-14.74,12.76c-2.18,0-5.5-0.21-7.63-0.71v23.98
			c4.72,0.98,9.33,1.49,13.73,1.49c21.29,0,37.66-11.69,37.66-36.98V231.72L173.51,231.72z"/>
		<path class="st1" d="M158.49,188.26c-8.59,0-17.06,5.65-17.06,16.94c0,11.27,8.62,16.39,17.21,16.39c0.16,0,0.3-0.02,0.46-0.02
			c8.37-0.18,16.57-5.28,16.57-16.38c0-11.11-8.39-16.75-16.76-16.93C158.77,188.27,158.64,188.26,158.49,188.26L158.49,188.26z"/>
		<path class="st1" d="M572.33,228.36c-17.83,0-24.16,9.18-27.22,14.05h-0.35v-10.63h-27.94v100.04h29.92v-54.44
			c0-6.13,0-20.91,17.12-20.91c15.68,0,15.68,13.69,15.68,20.72v54.62h29.93v-62.55c0-19.66-6.12-27.59-11.54-32.27
			C592.53,232.32,581.9,228.36,572.33,228.36L572.33,228.36z"/>
		<path class="st1" d="M451.77,306.95c-12.99,0-23.98-10.65-23.98-25.24c0-14.6,10.98-25.23,23.98-25.23
			c12.97,0,23.97,10.63,23.97,25.23C475.74,296.3,464.74,306.95,451.77,306.95L451.77,306.95z M451.77,228.54L451.77,228.54
			c-36.42,0-53.91,28.66-53.91,53.17c0,24.52,17.49,53.18,53.91,53.18c36.41,0,53.9-28.66,53.9-53.18
			C505.67,257.2,488.18,228.54,451.77,228.54L451.77,228.54z"/>
		<path class="st1" d="M239.24,307.31c-18.02,0-24.87-15.87-24.87-25.24c0-11.37,7.57-25.77,24.69-25.77
			c16.94,0,25.23,13.34,25.23,25.42C264.29,291.44,257.99,307.31,239.24,307.31L239.24,307.31z M234.73,228.36L234.73,228.36
			c-26.67,0-50.29,20.54-50.29,53.35c0,28.67,18.56,53.54,50.29,53.54c11.72,0,24.16-4.51,29.21-14.25h0.36v10.82h29.93V231.78
			h-29.93v10.63h-0.36C260.33,236.29,251.13,228.36,234.73,228.36L234.73,228.36z"/>
		<path class="st1" d="M640.88,299.2c-9.64,0-17.45,7.82-17.45,17.45c0,9.65,7.81,17.46,17.45,17.46c9.65,0,17.47-7.81,17.47-17.46
			C658.34,307.02,650.52,299.2,640.88,299.2L640.88,299.2z"/>
	</g>
	<g>
		<path class="st1" d="M212.41,391.5h-11.71c0.08,1.05,0.42,1.85,1.01,2.4c0.59,0.55,1.33,0.83,2.19,0.83
			c1.29,0,2.19-0.54,2.69-1.63h5.51c-0.28,1.11-0.79,2.11-1.53,2.99c-0.74,0.89-1.66,1.58-2.77,2.09c-1.11,0.5-2.35,0.76-3.72,0.76
			c-1.65,0-3.13-0.35-4.42-1.06c-1.29-0.71-2.3-1.71-3.03-3.02c-0.73-1.31-1.09-2.84-1.09-4.6c0-1.75,0.36-3.29,1.07-4.6
			c0.72-1.31,1.72-2.32,3.01-3.02c1.29-0.71,2.77-1.06,4.45-1.06c1.63,0,3.09,0.34,4.36,1.03c1.27,0.69,2.26,1.66,2.98,2.93
			c0.72,1.27,1.07,2.75,1.07,4.45C212.5,390.47,212.47,390.98,212.41,391.5z M207.21,388.63c0-0.89-0.3-1.59-0.91-2.12
			c-0.61-0.52-1.36-0.79-2.27-0.79c-0.87,0-1.6,0.25-2.19,0.76c-0.59,0.5-0.96,1.22-1.1,2.15H207.21z"/>
		<path class="st1" d="M229.64,383.56c1.18,1.28,1.77,3.04,1.77,5.28v9.86h-5.14v-9.16c0-1.13-0.29-2.01-0.88-2.63
			c-0.59-0.62-1.37-0.94-2.36-0.94s-1.77,0.31-2.36,0.94c-0.59,0.62-0.88,1.5-0.88,2.63v9.16h-5.17v-16.88h5.17v2.24
			c0.52-0.75,1.23-1.34,2.12-1.77c0.89-0.43,1.89-0.65,2.99-0.65C226.88,381.64,228.46,382.28,229.64,383.56z"/>
		<path class="st1" d="M234.36,385.66c0.65-1.31,1.55-2.32,2.68-3.02c1.13-0.71,2.39-1.06,3.78-1.06c1.19,0,2.23,0.24,3.13,0.73
			c0.9,0.48,1.59,1.12,2.07,1.91v-2.39h5.17v16.88h-5.17v-2.39c-0.5,0.79-1.21,1.42-2.1,1.91c-0.9,0.48-1.94,0.73-3.13,0.73
			c-1.37,0-2.62-0.36-3.75-1.07c-1.13-0.72-2.02-1.73-2.68-3.05c-0.66-1.32-0.98-2.85-0.98-4.58
			C233.37,388.5,233.7,386.98,234.36,385.66z M244.94,387.21c-0.72-0.75-1.59-1.12-2.62-1.12c-1.03,0-1.9,0.37-2.62,1.1
			c-0.72,0.74-1.07,1.75-1.07,3.04c0,1.29,0.36,2.31,1.07,3.07c0.72,0.76,1.59,1.13,2.62,1.13c1.03,0,1.9-0.37,2.62-1.12
			c0.72-0.75,1.07-1.76,1.07-3.06C246.02,388.97,245.66,387.95,244.94,387.21z"/>
		<path class="st1" d="M261.59,382.31c0.91-0.48,1.95-0.73,3.12-0.73c1.39,0,2.65,0.35,3.78,1.06c1.13,0.71,2.02,1.71,2.68,3.02
			c0.65,1.31,0.98,2.83,0.98,4.57c0,1.73-0.33,3.26-0.98,4.58c-0.66,1.32-1.55,2.34-2.68,3.05c-1.13,0.72-2.39,1.07-3.78,1.07
			c-1.19,0-2.23-0.24-3.12-0.71c-0.89-0.47-1.58-1.1-2.09-1.89v2.36h-5.17v-22.38h5.17v7.89
			C259.99,383.43,260.69,382.79,261.59,382.31z M265.81,387.19c-0.72-0.74-1.6-1.1-2.65-1.1c-1.03,0-1.9,0.37-2.62,1.12
			c-0.72,0.75-1.07,1.76-1.07,3.05c0,1.29,0.36,2.31,1.07,3.06c0.72,0.75,1.59,1.12,2.62,1.12c1.03,0,1.91-0.38,2.63-1.13
			c0.73-0.76,1.09-1.78,1.09-3.07C266.89,388.94,266.53,387.93,265.81,387.19z"/>
		<path class="st1" d="M279.44,376.32v22.38h-5.17v-22.38H279.44z"/>
		<path class="st1" d="M282.96,379.27c-0.57-0.53-0.86-1.2-0.86-1.98c0-0.81,0.29-1.48,0.86-2.01c0.57-0.53,1.32-0.8,2.22-0.8
			c0.89,0,1.62,0.27,2.19,0.8c0.57,0.53,0.86,1.21,0.86,2.01c0,0.79-0.29,1.45-0.86,1.98c-0.57,0.53-1.31,0.8-2.19,0.8
			C284.28,380.07,283.54,379.8,282.96,379.27z M287.76,381.82v16.88h-5.17v-16.88H287.76z"/>
		<path class="st1" d="M305.92,383.56c1.18,1.28,1.77,3.04,1.77,5.28v9.86h-5.14v-9.16c0-1.13-0.29-2.01-0.88-2.63
			c-0.59-0.62-1.37-0.94-2.36-0.94s-1.77,0.31-2.36,0.94c-0.59,0.62-0.88,1.5-0.88,2.63v9.16h-5.17v-16.88h5.17v2.24
			c0.52-0.75,1.23-1.34,2.12-1.77c0.89-0.43,1.89-0.65,2.99-0.65C303.16,381.64,304.74,382.28,305.92,383.56z"/>
		<path class="st1" d="M320.23,382.31c0.9,0.48,1.59,1.12,2.07,1.91v-2.39h5.17v16.85c0,1.55-0.31,2.96-0.92,4.22
			c-0.62,1.26-1.55,2.26-2.81,3.01c-1.26,0.75-2.83,1.12-4.7,1.12c-2.5,0-4.53-0.59-6.08-1.77c-1.55-1.18-2.44-2.78-2.66-4.79h5.11
			c0.16,0.65,0.54,1.15,1.15,1.53c0.61,0.37,1.35,0.56,2.24,0.56c1.07,0,1.92-0.31,2.56-0.92c0.64-0.62,0.95-1.6,0.95-2.95v-2.39
			c-0.5,0.79-1.2,1.43-2.09,1.92c-0.89,0.49-1.93,0.74-3.12,0.74c-1.39,0-2.65-0.36-3.78-1.07c-1.13-0.72-2.02-1.73-2.68-3.05
			c-0.66-1.32-0.98-2.85-0.98-4.58c0-1.73,0.33-3.26,0.98-4.57c0.65-1.31,1.55-2.32,2.68-3.02c1.13-0.71,2.39-1.06,3.78-1.06
			C318.28,381.58,319.33,381.82,320.23,382.31z M321.22,387.21c-0.72-0.75-1.59-1.12-2.62-1.12c-1.03,0-1.9,0.37-2.62,1.1
			c-0.72,0.74-1.07,1.75-1.07,3.04c0,1.29,0.36,2.31,1.07,3.07c0.72,0.76,1.59,1.13,2.62,1.13c1.03,0,1.9-0.37,2.62-1.12
			c0.72-0.75,1.07-1.76,1.07-3.06C322.3,388.97,321.94,387.95,321.22,387.21z"/>
		<path class="st1" d="M343.68,382.31c0.89-0.48,1.92-0.73,3.12-0.73c1.39,0,2.65,0.35,3.78,1.06c1.13,0.71,2.02,1.71,2.68,3.02
			c0.65,1.31,0.98,2.83,0.98,4.57c0,1.73-0.33,3.26-0.98,4.58c-0.66,1.32-1.55,2.34-2.68,3.05c-1.13,0.72-2.39,1.07-3.78,1.07
			c-1.17,0-2.2-0.24-3.1-0.73c-0.9-0.48-1.6-1.11-2.1-1.87v10.4h-5.17v-24.92h5.17v2.39C342.1,383.43,342.79,382.79,343.68,382.31z
			 M347.9,387.19c-0.72-0.74-1.6-1.1-2.65-1.1c-1.03,0-1.9,0.37-2.62,1.12c-0.72,0.75-1.07,1.76-1.07,3.05
			c0,1.29,0.36,2.31,1.07,3.06c0.72,0.75,1.59,1.12,2.62,1.12c1.03,0,1.91-0.38,2.63-1.13c0.73-0.76,1.09-1.78,1.09-3.07
			C348.98,388.94,348.62,387.93,347.9,387.19z"/>
		<path class="st1" d="M372.17,391.5h-11.71c0.08,1.05,0.42,1.85,1.01,2.4c0.59,0.55,1.33,0.83,2.19,0.83
			c1.29,0,2.19-0.54,2.69-1.63h5.51c-0.28,1.11-0.79,2.11-1.53,2.99c-0.74,0.89-1.66,1.58-2.77,2.09c-1.11,0.5-2.35,0.76-3.72,0.76
			c-1.65,0-3.13-0.35-4.42-1.06c-1.29-0.71-2.3-1.71-3.03-3.02c-0.73-1.31-1.09-2.84-1.09-4.6c0-1.75,0.36-3.29,1.07-4.6
			c0.72-1.31,1.72-2.32,3.01-3.02c1.29-0.71,2.77-1.06,4.45-1.06c1.63,0,3.09,0.34,4.36,1.03c1.27,0.69,2.26,1.66,2.98,2.93
			c0.72,1.27,1.07,2.75,1.07,4.45C372.27,390.47,372.24,390.98,372.17,391.5z M366.97,388.63c0-0.89-0.3-1.59-0.91-2.12
			c-0.61-0.52-1.36-0.79-2.27-0.79c-0.87,0-1.6,0.25-2.19,0.76c-0.59,0.5-0.96,1.22-1.1,2.15H366.97z"/>
		<path class="st1" d="M377.6,397.88c-1.32-0.71-2.36-1.71-3.12-3.02c-0.76-1.31-1.13-2.84-1.13-4.6c0-1.73,0.38-3.26,1.15-4.58
			c0.77-1.32,1.81-2.33,3.15-3.04c1.33-0.71,2.82-1.06,4.48-1.06s3.15,0.35,4.48,1.06c1.33,0.71,2.38,1.72,3.15,3.04
			c0.77,1.32,1.15,2.85,1.15,4.58c0,1.73-0.39,3.26-1.16,4.58c-0.78,1.32-1.83,2.33-3.18,3.04c-1.34,0.71-2.84,1.06-4.49,1.06
			C380.41,398.94,378.92,398.59,377.6,397.88z M384.59,393.38c0.7-0.73,1.04-1.76,1.04-3.12c0-1.35-0.34-2.39-1.01-3.12
			c-0.68-0.73-1.51-1.09-2.5-1.09c-1.01,0-1.84,0.36-2.51,1.07c-0.67,0.72-1,1.76-1,3.13c0,1.35,0.33,2.39,0.98,3.12
			c0.65,0.73,1.48,1.09,2.47,1.09C383.05,394.47,383.9,394.1,384.59,393.38z"/>
		<path class="st1" d="M400.3,382.31c0.89-0.48,1.92-0.73,3.12-0.73c1.39,0,2.65,0.35,3.78,1.06c1.13,0.71,2.02,1.71,2.68,3.02
			c0.65,1.31,0.98,2.83,0.98,4.57c0,1.73-0.33,3.26-0.98,4.58c-0.66,1.32-1.55,2.34-2.68,3.05c-1.13,0.72-2.39,1.07-3.78,1.07
			c-1.17,0-2.2-0.24-3.1-0.73c-0.9-0.48-1.6-1.11-2.1-1.87v10.4h-5.17v-24.92h5.17v2.39C398.72,383.43,399.42,382.79,400.3,382.31z
			 M404.52,387.19c-0.72-0.74-1.6-1.1-2.65-1.1c-1.03,0-1.9,0.37-2.62,1.12c-0.72,0.75-1.07,1.76-1.07,3.05
			c0,1.29,0.36,2.31,1.07,3.06c0.72,0.75,1.59,1.12,2.62,1.12c1.03,0,1.91-0.38,2.63-1.13c0.73-0.76,1.09-1.78,1.09-3.07
			C405.6,388.94,405.24,387.93,404.52,387.19z"/>
		<path class="st1" d="M418.15,376.32v22.38h-5.17v-22.38H418.15z"/>
		<path class="st1" d="M437.11,391.5h-11.71c0.08,1.05,0.42,1.85,1.01,2.4c0.59,0.55,1.33,0.83,2.19,0.83
			c1.29,0,2.19-0.54,2.69-1.63h5.51c-0.28,1.11-0.79,2.11-1.53,2.99c-0.74,0.89-1.66,1.58-2.77,2.09c-1.11,0.5-2.35,0.76-3.72,0.76
			c-1.65,0-3.13-0.35-4.42-1.06c-1.29-0.71-2.3-1.71-3.03-3.02c-0.73-1.31-1.09-2.84-1.09-4.6c0-1.75,0.36-3.29,1.07-4.6
			c0.72-1.31,1.72-2.32,3.01-3.02c1.29-0.71,2.77-1.06,4.45-1.06c1.63,0,3.09,0.34,4.36,1.03c1.27,0.69,2.26,1.66,2.98,2.93
			c0.72,1.27,1.07,2.75,1.07,4.45C437.2,390.47,437.17,390.98,437.11,391.5z M431.91,388.63c0-0.89-0.3-1.59-0.91-2.12
			c-0.61-0.52-1.36-0.79-2.27-0.79c-0.87,0-1.6,0.25-2.19,0.76c-0.59,0.5-0.96,1.22-1.1,2.15H431.91z"/>
		<path class="st1" d="M454.54,394.32v4.39h-2.63c-1.88,0-3.34-0.46-4.39-1.38c-1.05-0.92-1.57-2.41-1.57-4.49v-6.72h-2.06v-4.3
			h2.06v-4.11h5.17v4.11h3.39v4.3h-3.39v6.78c0,0.5,0.12,0.87,0.36,1.09c0.24,0.22,0.65,0.33,1.21,0.33H454.54z"/>
		<path class="st1" d="M460.03,397.88c-1.32-0.71-2.36-1.71-3.12-3.02c-0.76-1.31-1.13-2.84-1.13-4.6c0-1.73,0.38-3.26,1.15-4.58
			c0.77-1.32,1.81-2.33,3.15-3.04c1.33-0.71,2.82-1.06,4.48-1.06s3.15,0.35,4.48,1.06c1.33,0.71,2.38,1.72,3.15,3.04
			c0.77,1.32,1.15,2.85,1.15,4.58c0,1.73-0.39,3.26-1.16,4.58c-0.78,1.32-1.83,2.33-3.18,3.04c-1.34,0.71-2.84,1.06-4.49,1.06
			C462.83,398.94,461.35,398.59,460.03,397.88z M467.01,393.38c0.7-0.73,1.04-1.76,1.04-3.12c0-1.35-0.34-2.39-1.01-3.12
			c-0.68-0.73-1.51-1.09-2.5-1.09c-1.01,0-1.84,0.36-2.51,1.07c-0.67,0.72-1,1.76-1,3.13c0,1.35,0.33,2.39,0.98,3.12
			c0.65,0.73,1.48,1.09,2.47,1.09C465.47,394.47,466.32,394.1,467.01,393.38z"/>
		<path class="st1" d="M481.23,385.66c0.65-1.31,1.55-2.32,2.68-3.02c1.13-0.71,2.39-1.06,3.78-1.06c1.11,0,2.12,0.23,3.04,0.7
			c0.92,0.46,1.64,1.09,2.16,1.88v-7.83h5.17v22.38h-5.17v-2.42c-0.48,0.81-1.17,1.45-2.07,1.94c-0.9,0.48-1.94,0.73-3.13,0.73
			c-1.39,0-2.65-0.36-3.78-1.07c-1.13-0.72-2.02-1.73-2.68-3.05c-0.66-1.32-0.98-2.85-0.98-4.58
			C480.24,388.5,480.57,386.98,481.23,385.66z M491.81,387.21c-0.72-0.75-1.59-1.12-2.62-1.12c-1.03,0-1.9,0.37-2.62,1.1
			c-0.72,0.74-1.07,1.75-1.07,3.04c0,1.29,0.36,2.31,1.07,3.07c0.72,0.76,1.59,1.13,2.62,1.13c1.03,0,1.9-0.37,2.62-1.12
			c0.72-0.75,1.07-1.76,1.07-3.06C492.89,388.97,492.53,387.95,491.81,387.21z"/>
		<path class="st1" d="M504.43,397.88c-1.32-0.71-2.36-1.71-3.12-3.02c-0.76-1.31-1.13-2.84-1.13-4.6c0-1.73,0.38-3.26,1.15-4.58
			c0.77-1.32,1.81-2.33,3.15-3.04c1.33-0.71,2.82-1.06,4.48-1.06s3.15,0.35,4.48,1.06c1.33,0.71,2.38,1.72,3.15,3.04
			c0.77,1.32,1.15,2.85,1.15,4.58c0,1.73-0.39,3.26-1.16,4.58c-0.78,1.32-1.83,2.33-3.18,3.04c-1.34,0.71-2.84,1.06-4.49,1.06
			C507.23,398.94,505.75,398.59,504.43,397.88z M511.41,393.38c0.7-0.73,1.04-1.76,1.04-3.12c0-1.35-0.34-2.39-1.01-3.12
			c-0.68-0.73-1.51-1.09-2.5-1.09c-1.01,0-1.84,0.36-2.51,1.07c-0.67,0.72-1,1.76-1,3.13c0,1.35,0.33,2.39,0.98,3.12
			c0.65,0.73,1.48,1.09,2.47,1.09C509.88,394.47,510.72,394.1,511.41,393.38z"/>
		<path class="st1" d="M535.22,382.31c0.9,0.48,1.59,1.12,2.07,1.91v-2.39h5.17v16.85c0,1.55-0.31,2.96-0.92,4.22
			c-0.62,1.26-1.55,2.26-2.81,3.01c-1.26,0.75-2.83,1.12-4.7,1.12c-2.5,0-4.53-0.59-6.08-1.77c-1.55-1.18-2.44-2.78-2.66-4.79h5.11
			c0.16,0.65,0.54,1.15,1.15,1.53c0.61,0.37,1.35,0.56,2.24,0.56c1.07,0,1.92-0.31,2.56-0.92c0.64-0.62,0.95-1.6,0.95-2.95v-2.39
			c-0.5,0.79-1.2,1.43-2.09,1.92c-0.89,0.49-1.93,0.74-3.12,0.74c-1.39,0-2.65-0.36-3.78-1.07c-1.13-0.72-2.02-1.73-2.68-3.05
			c-0.66-1.32-0.98-2.85-0.98-4.58c0-1.73,0.33-3.26,0.98-4.57c0.65-1.31,1.55-2.32,2.68-3.02c1.13-0.71,2.39-1.06,3.78-1.06
			C533.28,381.58,534.32,381.82,535.22,382.31z M536.21,387.21c-0.72-0.75-1.59-1.12-2.62-1.12c-1.03,0-1.9,0.37-2.62,1.1
			c-0.72,0.74-1.07,1.75-1.07,3.04c0,1.29,0.36,2.31,1.07,3.07c0.72,0.76,1.59,1.13,2.62,1.13c1.03,0,1.9-0.37,2.62-1.12
			c0.72-0.75,1.07-1.76,1.07-3.06C537.29,388.97,536.93,387.95,536.21,387.21z"/>
		<path class="st1" d="M553.05,382.44c0.91-0.53,1.92-0.8,3.02-0.8v5.47h-1.42c-1.29,0-2.26,0.28-2.9,0.83
			c-0.65,0.55-0.97,1.53-0.97,2.92v7.83h-5.17v-16.88h5.17v2.81C551.38,383.71,552.14,382.98,553.05,382.44z"/>
		<path class="st1" d="M573.77,391.5h-11.71c0.08,1.05,0.42,1.85,1.01,2.4c0.59,0.55,1.33,0.83,2.19,0.83
			c1.29,0,2.19-0.54,2.69-1.63h5.51c-0.28,1.11-0.79,2.11-1.53,2.99c-0.74,0.89-1.66,1.58-2.77,2.09c-1.11,0.5-2.35,0.76-3.72,0.76
			c-1.65,0-3.13-0.35-4.42-1.06c-1.29-0.71-2.3-1.71-3.03-3.02c-0.73-1.31-1.09-2.84-1.09-4.6c0-1.75,0.36-3.29,1.07-4.6
			c0.72-1.31,1.72-2.32,3.01-3.02c1.29-0.71,2.77-1.06,4.45-1.06c1.63,0,3.09,0.34,4.36,1.03c1.27,0.69,2.26,1.66,2.98,2.93
			c0.72,1.27,1.07,2.75,1.07,4.45C573.86,390.47,573.83,390.98,573.77,391.5z M568.56,388.63c0-0.89-0.3-1.59-0.91-2.12
			c-0.61-0.52-1.36-0.79-2.27-0.79c-0.87,0-1.6,0.25-2.19,0.76c-0.59,0.5-0.96,1.22-1.1,2.15H568.56z"/>
		<path class="st1" d="M575.93,385.66c0.65-1.31,1.55-2.32,2.68-3.02c1.13-0.71,2.39-1.06,3.78-1.06c1.19,0,2.23,0.24,3.13,0.73
			c0.9,0.48,1.59,1.12,2.07,1.91v-2.39h5.17v16.88h-5.17v-2.39c-0.5,0.79-1.21,1.42-2.1,1.91c-0.9,0.48-1.94,0.73-3.13,0.73
			c-1.37,0-2.62-0.36-3.75-1.07c-1.13-0.72-2.02-1.73-2.68-3.05c-0.66-1.32-0.98-2.85-0.98-4.58
			C574.95,388.5,575.27,386.98,575.93,385.66z M586.52,387.21c-0.72-0.75-1.59-1.12-2.62-1.12c-1.03,0-1.9,0.37-2.62,1.1
			c-0.72,0.74-1.07,1.75-1.07,3.04c0,1.29,0.36,2.31,1.07,3.07c0.72,0.76,1.59,1.13,2.62,1.13c1.03,0,1.9-0.37,2.62-1.12
			c0.72-0.75,1.07-1.76,1.07-3.06C587.59,388.97,587.23,387.95,586.52,387.21z"/>
		<path class="st1" d="M605.31,394.32v4.39h-2.63c-1.88,0-3.34-0.46-4.39-1.38c-1.05-0.92-1.57-2.41-1.57-4.49v-6.72h-2.06v-4.3
			h2.06v-4.11h5.17v4.11h3.39v4.3h-3.39v6.78c0,0.5,0.12,0.87,0.36,1.09c0.24,0.22,0.65,0.33,1.21,0.33H605.31z"/>
		<path class="st1" d="M637.62,381.82l-4.57,16.88h-5.72l-2.66-10.95l-2.75,10.95h-5.69l-4.6-16.88h5.17l2.39,12.07l2.84-12.07h5.48
			l2.87,12.01l2.36-12.01H637.62z"/>
		<path class="st1" d="M642.2,397.88c-1.32-0.71-2.36-1.71-3.12-3.02c-0.76-1.31-1.13-2.84-1.13-4.6c0-1.73,0.38-3.26,1.15-4.58
			c0.77-1.32,1.81-2.33,3.15-3.04c1.33-0.71,2.82-1.06,4.48-1.06s3.15,0.35,4.48,1.06c1.33,0.71,2.38,1.72,3.15,3.04
			c0.77,1.32,1.15,2.85,1.15,4.58c0,1.73-0.39,3.26-1.16,4.58c-0.78,1.32-1.83,2.33-3.18,3.04c-1.34,0.71-2.84,1.06-4.49,1.06
			C645.01,398.94,643.52,398.59,642.2,397.88z M649.19,393.38c0.7-0.73,1.04-1.76,1.04-3.12c0-1.35-0.34-2.39-1.01-3.12
			c-0.68-0.73-1.51-1.09-2.5-1.09c-1.01,0-1.84,0.36-2.51,1.07c-0.67,0.72-1,1.76-1,3.13c0,1.35,0.33,2.39,0.98,3.12
			c0.65,0.73,1.48,1.09,2.47,1.09C647.65,394.47,648.49,394.1,649.19,393.38z"/>
		<path class="st1" d="M665.08,382.44c0.91-0.53,1.92-0.8,3.02-0.8v5.47h-1.42c-1.29,0-2.26,0.28-2.9,0.83
			c-0.65,0.55-0.97,1.53-0.97,2.92v7.83h-5.17v-16.88h5.17v2.81C663.42,383.71,664.17,382.98,665.08,382.44z"/>
		<path class="st1" d="M680.29,398.7l-5.14-7.08v7.08h-5.17v-22.38h5.17v12.37l5.11-6.87h6.38l-7.02,8.47l7.08,8.41H680.29z"/>
	</g>
</g>
</svg>
